<svg xmlns="http://www.w3.org/2000/svg" xmlns:xlink="http://www.w3.org/1999/xlink" width="1080" zoomAndPan="magnify" viewBox="0 0 810 1012.49997" height="1350" preserveAspectRatio="xMidYMid meet" version="1.0"><defs><clipPath id="8839d56e48"><path d="M 280 126.976562 L 527 126.976562 L 527 378 L 280 378 Z M 280 126.976562 " clip-rule="nonzero"/></clipPath><clipPath id="a9f39de471"><path d="M 285 426 L 523 426 L 523 884.851562 L 285 884.851562 Z M 285 426 " clip-rule="nonzero"/></clipPath><clipPath id="de78721a86"><path d="M 21.664062 538 L 230 538 L 230 884.851562 L 21.664062 884.851562 Z M 21.664062 538 " clip-rule="nonzero"/></clipPath><clipPath id="8d4b22057b"><path d="M 577 593 L 787 593 L 787 884.851562 L 577 884.851562 Z M 577 593 " clip-rule="nonzero"/></clipPath></defs><g clip-path="url(#8839d56e48)"><path fill="#8b8b8b" d="M 386.449219 138.292969 L 363.660156 191.492188 C 363.300781 192.328125 362.886719 193.132812 362.410156 193.90625 C 361.9375 194.679688 361.40625 195.414062 360.824219 196.113281 C 360.242188 196.808594 359.613281 197.460938 358.933594 198.066406 C 358.257812 198.671875 357.539062 199.222656 356.78125 199.722656 C 356.023438 200.222656 355.230469 200.664062 354.410156 201.050781 C 353.585938 201.433594 352.738281 201.757812 351.871094 202.019531 C 351 202.28125 350.113281 202.476562 349.214844 202.609375 C 348.316406 202.742188 347.414062 202.808594 346.503906 202.808594 L 299.355469 202.808594 C 298.4375 202.808594 297.523438 202.875 296.613281 203.011719 C 295.707031 203.144531 294.8125 203.347656 293.933594 203.613281 C 293.054688 203.878906 292.203125 204.210938 291.371094 204.601562 C 290.542969 204.996094 289.746094 205.445312 288.984375 205.957031 C 288.21875 206.46875 287.5 207.03125 286.816406 207.648438 C 286.136719 208.265625 285.507812 208.925781 284.925781 209.636719 C 284.34375 210.347656 283.816406 211.09375 283.34375 211.882812 C 282.871094 212.671875 282.460938 213.488281 282.109375 214.335938 C 281.757812 215.183594 281.472656 216.054688 281.246094 216.945312 C 281.023438 217.835938 280.867188 218.738281 280.777344 219.652344 C 280.6875 220.566406 280.667969 221.480469 280.710938 222.398438 C 280.757812 223.3125 280.867188 224.222656 281.046875 225.121094 C 281.226562 226.023438 281.472656 226.90625 281.78125 227.769531 C 282.089844 228.632812 282.460938 229.472656 282.894531 230.28125 C 283.324219 231.089844 283.816406 231.863281 284.363281 232.601562 C 284.910156 233.339844 285.507812 234.03125 286.15625 234.679688 L 321.476562 270.015625 C 322.617188 271.15625 323.59375 272.425781 324.40625 273.816406 C 325.214844 275.210938 325.835938 276.683594 326.269531 278.238281 C 326.699219 279.789062 326.921875 281.371094 326.945312 282.984375 C 326.964844 284.597656 326.777344 286.183594 326.386719 287.75 L 309.695312 354.542969 C 309.476562 355.425781 309.320312 356.316406 309.230469 357.222656 C 309.140625 358.128906 309.113281 359.035156 309.15625 359.945312 C 309.199219 360.851562 309.308594 361.753906 309.480469 362.648438 C 309.65625 363.539062 309.894531 364.414062 310.195312 365.273438 C 310.5 366.132812 310.863281 366.964844 311.285156 367.769531 C 311.707031 368.574219 312.1875 369.34375 312.726562 370.078125 C 313.261719 370.8125 313.847656 371.503906 314.484375 372.152344 C 315.121094 372.804688 315.804688 373.402344 316.527344 373.953125 C 317.253906 374.5 318.015625 374.996094 318.8125 375.433594 C 319.609375 375.871094 320.433594 376.25 321.289062 376.566406 C 322.140625 376.882812 323.011719 377.136719 323.902344 377.328125 C 324.789062 377.519531 325.6875 377.644531 326.597656 377.703125 C 327.503906 377.761719 328.410156 377.753906 329.320312 377.679688 C 330.226562 377.605469 331.121094 377.464844 332.007812 377.261719 C 332.894531 377.054688 333.761719 376.789062 334.609375 376.457031 C 335.457031 376.125 336.273438 375.734375 337.0625 375.28125 L 394.347656 342.535156 C 395.757812 341.730469 397.246094 341.117188 398.816406 340.699219 C 400.386719 340.285156 401.980469 340.074219 403.605469 340.074219 C 405.230469 340.074219 406.828125 340.285156 408.398438 340.699219 C 409.964844 341.117188 411.457031 341.730469 412.867188 342.535156 L 470.148438 375.28125 C 470.9375 375.734375 471.757812 376.125 472.605469 376.457031 C 473.453125 376.789062 474.320312 377.054688 475.203125 377.261719 C 476.089844 377.464844 476.988281 377.605469 477.894531 377.679688 C 478.800781 377.753906 479.707031 377.761719 480.617188 377.703125 C 481.523438 377.644531 482.421875 377.519531 483.3125 377.328125 C 484.203125 377.136719 485.074219 376.882812 485.925781 376.566406 C 486.777344 376.25 487.601562 375.871094 488.398438 375.433594 C 489.199219 374.996094 489.957031 374.5 490.683594 373.953125 C 491.410156 373.402344 492.089844 372.800781 492.726562 372.152344 C 493.363281 371.503906 493.953125 370.8125 494.488281 370.078125 C 495.023438 369.34375 495.503906 368.574219 495.925781 367.769531 C 496.351562 366.964844 496.714844 366.132812 497.015625 365.273438 C 497.320312 364.414062 497.554688 363.539062 497.730469 362.648438 C 497.90625 361.753906 498.011719 360.851562 498.054688 359.945312 C 498.097656 359.035156 498.074219 358.128906 497.984375 357.222656 C 497.894531 356.316406 497.738281 355.425781 497.515625 354.542969 L 480.824219 287.75 C 480.433594 286.183594 480.25 284.597656 480.269531 282.984375 C 480.289062 281.371094 480.515625 279.789062 480.945312 278.238281 C 481.375 276.683594 481.996094 275.210938 482.808594 273.816406 C 483.621094 272.425781 484.59375 271.15625 485.734375 270.015625 L 521.054688 234.683594 C 521.703125 234.03125 522.300781 233.339844 522.847656 232.601562 C 523.394531 231.863281 523.882812 231.089844 524.316406 230.28125 C 524.75 229.472656 525.121094 228.632812 525.429688 227.769531 C 525.738281 226.90625 525.984375 226.023438 526.164062 225.121094 C 526.34375 224.222656 526.453125 223.3125 526.5 222.398438 C 526.542969 221.480469 526.523438 220.566406 526.433594 219.652344 C 526.34375 218.738281 526.1875 217.835938 525.964844 216.945312 C 525.738281 216.054688 525.453125 215.183594 525.101562 214.335938 C 524.75 213.488281 524.339844 212.671875 523.867188 211.882812 C 523.394531 211.09375 522.867188 210.347656 522.285156 209.636719 C 521.703125 208.925781 521.074219 208.265625 520.394531 207.648438 C 519.710938 207.03125 518.992188 206.46875 518.226562 205.957031 C 517.464844 205.445312 516.667969 204.996094 515.839844 204.601562 C 515.007812 204.210938 514.15625 203.878906 513.277344 203.613281 C 512.398438 203.347656 511.503906 203.144531 510.597656 203.011719 C 509.6875 202.875 508.773438 202.808594 507.855469 202.808594 L 460.703125 202.808594 C 459.796875 202.808594 458.894531 202.742188 457.996094 202.609375 C 457.09375 202.476562 456.210938 202.28125 455.339844 202.019531 C 454.472656 201.757812 453.625 201.433594 452.800781 201.050781 C 451.980469 200.664062 451.1875 200.222656 450.429688 199.722656 C 449.671875 199.222656 448.953125 198.671875 448.277344 198.066406 C 447.597656 197.460938 446.96875 196.808594 446.386719 196.113281 C 445.804688 195.414062 445.273438 194.679688 444.800781 193.90625 C 444.324219 193.132812 443.90625 192.328125 443.550781 191.492188 L 420.761719 138.292969 C 420.402344 137.457031 419.984375 136.652344 419.511719 135.878906 C 419.035156 135.105469 418.507812 134.367188 417.925781 133.671875 C 417.34375 132.972656 416.710938 132.324219 416.035156 131.71875 C 415.355469 131.113281 414.640625 130.558594 413.882812 130.058594 C 413.121094 129.558594 412.332031 129.117188 411.507812 128.734375 C 410.6875 128.347656 409.839844 128.023438 408.96875 127.765625 C 408.101562 127.503906 407.214844 127.304688 406.316406 127.175781 C 405.417969 127.042969 404.515625 126.976562 403.605469 126.976562 C 402.699219 126.976562 401.792969 127.042969 400.894531 127.171875 C 399.996094 127.304688 399.113281 127.503906 398.242188 127.761719 C 397.371094 128.023438 396.523438 128.347656 395.703125 128.730469 C 394.878906 129.117188 394.089844 129.558594 393.332031 130.058594 C 392.570312 130.558594 391.855469 131.113281 391.175781 131.71875 C 390.5 132.324219 389.867188 132.972656 389.285156 133.671875 C 388.703125 134.367188 388.175781 135.101562 387.699219 135.878906 C 387.226562 136.652344 386.808594 137.457031 386.449219 138.292969 Z M 386.449219 138.292969 " fill-opacity="1" fill-rule="nonzero"/></g><path fill="#8b8b8b" d="M 110.773438 297.679688 L 91.988281 341.535156 C 91.691406 342.222656 91.347656 342.886719 90.957031 343.523438 C 90.566406 344.164062 90.128906 344.769531 89.648438 345.34375 C 89.167969 345.917969 88.648438 346.453125 88.089844 346.953125 C 87.53125 347.453125 86.941406 347.90625 86.316406 348.320312 C 85.691406 348.730469 85.039062 349.097656 84.359375 349.414062 C 83.683594 349.730469 82.984375 349.996094 82.265625 350.210938 C 81.550781 350.429688 80.820312 350.589844 80.078125 350.699219 C 79.339844 350.808594 78.59375 350.863281 77.84375 350.863281 L 38.976562 350.863281 C 38.21875 350.863281 37.46875 350.917969 36.71875 351.03125 C 35.96875 351.140625 35.234375 351.308594 34.507812 351.527344 C 33.785156 351.746094 33.082031 352.019531 32.398438 352.34375 C 31.714844 352.664062 31.058594 353.039062 30.425781 353.457031 C 29.796875 353.878906 29.203125 354.34375 28.644531 354.851562 C 28.082031 355.359375 27.5625 355.90625 27.082031 356.492188 C 26.601562 357.078125 26.167969 357.695312 25.777344 358.34375 C 25.390625 358.992188 25.050781 359.667969 24.761719 360.367188 C 24.472656 361.066406 24.234375 361.78125 24.050781 362.515625 C 23.867188 363.25 23.738281 363.992188 23.664062 364.746094 C 23.589844 365.5 23.570312 366.253906 23.609375 367.011719 C 23.644531 367.765625 23.738281 368.515625 23.886719 369.257812 C 24.035156 370 24.234375 370.726562 24.488281 371.441406 C 24.746094 372.152344 25.050781 372.84375 25.40625 373.507812 C 25.765625 374.175781 26.167969 374.816406 26.617188 375.421875 C 27.070312 376.03125 27.5625 376.601562 28.097656 377.136719 L 57.214844 406.265625 C 58.152344 407.207031 58.957031 408.25 59.625 409.398438 C 60.296875 410.546875 60.808594 411.761719 61.164062 413.042969 C 61.515625 414.324219 61.703125 415.628906 61.71875 416.957031 C 61.734375 418.285156 61.582031 419.59375 61.261719 420.882812 L 47.503906 475.941406 C 47.320312 476.671875 47.191406 477.40625 47.117188 478.152344 C 47.042969 478.898438 47.023438 479.648438 47.058594 480.394531 C 47.09375 481.144531 47.183594 481.886719 47.324219 482.625 C 47.46875 483.359375 47.664062 484.082031 47.914062 484.789062 C 48.164062 485.496094 48.460938 486.179688 48.8125 486.84375 C 49.160156 487.507812 49.558594 488.144531 50 488.75 C 50.441406 489.355469 50.925781 489.925781 51.449219 490.460938 C 51.976562 490.996094 52.535156 491.488281 53.132812 491.941406 C 53.730469 492.394531 54.359375 492.800781 55.015625 493.164062 C 55.675781 493.523438 56.355469 493.835938 57.054688 494.097656 C 57.757812 494.359375 58.476562 494.570312 59.210938 494.726562 C 59.945312 494.882812 60.683594 494.984375 61.433594 495.035156 C 62.179688 495.082031 62.929688 495.074219 63.675781 495.015625 C 64.425781 494.953125 65.164062 494.839844 65.894531 494.671875 C 66.625 494.5 67.339844 494.28125 68.035156 494.007812 C 68.734375 493.734375 69.410156 493.410156 70.0625 493.039062 L 117.28125 466.042969 C 118.445312 465.378906 119.671875 464.875 120.964844 464.53125 C 122.257812 464.1875 123.574219 464.015625 124.914062 464.015625 C 126.253906 464.015625 127.570312 464.1875 128.863281 464.53125 C 130.15625 464.875 131.386719 465.378906 132.546875 466.042969 L 179.769531 493.039062 C 180.417969 493.410156 181.09375 493.734375 181.792969 494.007812 C 182.492188 494.28125 183.203125 494.5 183.9375 494.671875 C 184.667969 494.839844 185.40625 494.953125 186.152344 495.015625 C 186.898438 495.074219 187.648438 495.082031 188.394531 495.035156 C 189.144531 494.984375 189.886719 494.882812 190.617188 494.726562 C 191.351562 494.570312 192.070312 494.359375 192.773438 494.097656 C 193.476562 493.835938 194.15625 493.523438 194.8125 493.164062 C 195.46875 492.800781 196.097656 492.394531 196.695312 491.941406 C 197.292969 491.488281 197.855469 490.996094 198.378906 490.460938 C 198.90625 489.925781 199.386719 489.355469 199.832031 488.75 C 200.273438 488.144531 200.667969 487.507812 201.015625 486.84375 C 201.367188 486.179688 201.664062 485.496094 201.914062 484.789062 C 202.164062 484.082031 202.359375 483.359375 202.503906 482.625 C 202.648438 481.886719 202.734375 481.144531 202.769531 480.394531 C 202.804688 479.648438 202.785156 478.898438 202.710938 478.152344 C 202.636719 477.40625 202.507812 476.671875 202.328125 475.941406 L 188.566406 420.882812 C 188.246094 419.59375 188.09375 418.285156 188.109375 416.957031 C 188.125 415.628906 188.3125 414.324219 188.667969 413.042969 C 189.019531 411.761719 189.53125 410.546875 190.203125 409.398438 C 190.871094 408.25 191.675781 407.207031 192.613281 406.265625 L 221.730469 377.136719 C 222.265625 376.601562 222.757812 376.03125 223.210938 375.421875 C 223.660156 374.816406 224.066406 374.175781 224.421875 373.507812 C 224.777344 372.84375 225.085938 372.152344 225.339844 371.441406 C 225.59375 370.726562 225.796875 370 225.941406 369.257812 C 226.089844 368.515625 226.183594 367.765625 226.21875 367.011719 C 226.257812 366.253906 226.238281 365.5 226.164062 364.746094 C 226.089844 363.992188 225.960938 363.25 225.777344 362.515625 C 225.59375 361.78125 225.355469 361.066406 225.066406 360.367188 C 224.777344 359.667969 224.4375 358.992188 224.050781 358.34375 C 223.660156 357.695312 223.226562 357.078125 222.746094 356.492188 C 222.265625 355.90625 221.746094 355.359375 221.1875 354.851562 C 220.625 354.34375 220.03125 353.878906 219.402344 353.457031 C 218.773438 353.039062 218.117188 352.664062 217.433594 352.34375 C 216.746094 352.019531 216.042969 351.746094 215.320312 351.527344 C 214.59375 351.308594 213.859375 351.140625 213.109375 351.03125 C 212.363281 350.917969 211.609375 350.863281 210.851562 350.863281 L 171.984375 350.863281 C 171.234375 350.863281 170.488281 350.808594 169.75 350.699219 C 169.007812 350.589844 168.277344 350.429688 167.5625 350.210938 C 166.84375 349.996094 166.148438 349.730469 165.46875 349.414062 C 164.789062 349.097656 164.136719 348.730469 163.511719 348.320312 C 162.886719 347.90625 162.296875 347.453125 161.738281 346.953125 C 161.179688 346.453125 160.660156 345.917969 160.179688 345.34375 C 159.699219 344.769531 159.261719 344.164062 158.871094 343.523438 C 158.480469 342.886719 158.136719 342.222656 157.84375 341.535156 L 139.054688 297.679688 C 138.761719 296.992188 138.417969 296.328125 138.027344 295.691406 C 137.632812 295.050781 137.199219 294.445312 136.71875 293.871094 C 136.238281 293.296875 135.71875 292.761719 135.160156 292.261719 C 134.601562 291.761719 134.007812 291.308594 133.382812 290.894531 C 132.757812 290.484375 132.105469 290.117188 131.429688 289.800781 C 130.75 289.484375 130.054688 289.21875 129.335938 289.003906 C 128.617188 288.789062 127.890625 288.625 127.148438 288.515625 C 126.40625 288.40625 125.664062 288.351562 124.914062 288.351562 C 124.164062 288.351562 123.421875 288.40625 122.679688 288.515625 C 121.9375 288.625 121.210938 288.789062 120.492188 289.003906 C 119.777344 289.21875 119.078125 289.484375 118.398438 289.800781 C 117.722656 290.117188 117.070312 290.484375 116.445312 290.894531 C 115.820312 291.308594 115.226562 291.761719 114.667969 292.261719 C 114.109375 292.761719 113.589844 293.296875 113.109375 293.871094 C 112.628906 294.445312 112.195312 295.050781 111.804688 295.691406 C 111.410156 296.328125 111.066406 296.992188 110.773438 297.679688 Z M 110.773438 297.679688 " fill-opacity="1" fill-rule="nonzero"/><g clip-path="url(#a9f39de471)"><path fill="#8b8b8b" d="M 319.996094 426.566406 L 487.210938 426.566406 C 488.355469 426.566406 489.492188 426.625 490.628906 426.734375 C 491.761719 426.847656 492.890625 427.015625 494.007812 427.238281 C 495.128906 427.460938 496.234375 427.738281 497.324219 428.066406 C 498.417969 428.398438 499.488281 428.785156 500.542969 429.21875 C 501.597656 429.65625 502.628906 430.144531 503.632812 430.683594 C 504.640625 431.21875 505.617188 431.804688 506.566406 432.4375 C 507.515625 433.074219 508.429688 433.75 509.3125 434.476562 C 510.195312 435.199219 511.039062 435.964844 511.84375 436.773438 C 512.652344 437.578125 513.417969 438.421875 514.140625 439.304688 C 514.867188 440.1875 515.542969 441.101562 516.179688 442.050781 C 516.8125 443 517.398438 443.976562 517.9375 444.984375 C 518.472656 445.988281 518.960938 447.019531 519.398438 448.074219 C 519.832031 449.128906 520.21875 450.199219 520.550781 451.292969 C 520.878906 452.382812 521.15625 453.488281 521.378906 454.609375 C 521.601562 455.726562 521.769531 456.855469 521.882812 457.988281 C 521.992188 459.125 522.050781 460.265625 522.050781 461.40625 L 522.050781 851.570312 C 522.050781 852.714844 521.992188 853.851562 521.882812 854.988281 C 521.769531 856.121094 521.601562 857.25 521.378906 858.367188 C 521.15625 859.488281 520.878906 860.59375 520.550781 861.683594 C 520.21875 862.777344 519.832031 863.847656 519.398438 864.902344 C 518.960938 865.957031 518.472656 866.988281 517.9375 867.992188 C 517.398438 869 516.8125 869.976562 516.179688 870.925781 C 515.542969 871.875 514.867188 872.789062 514.140625 873.671875 C 513.417969 874.554688 512.652344 875.398438 511.84375 876.207031 C 511.039062 877.011719 510.195312 877.777344 509.3125 878.5 C 508.429688 879.226562 507.515625 879.902344 506.566406 880.539062 C 505.617188 881.171875 504.640625 881.757812 503.632812 882.296875 C 502.628906 882.832031 501.597656 883.320312 500.542969 883.757812 C 499.488281 884.191406 498.417969 884.578125 497.324219 884.910156 C 496.234375 885.238281 495.128906 885.515625 494.007812 885.738281 C 492.890625 885.960938 491.761719 886.128906 490.628906 886.242188 C 489.492188 886.351562 488.355469 886.410156 487.210938 886.410156 L 319.996094 886.410156 C 318.855469 886.410156 317.71875 886.351562 316.582031 886.242188 C 315.449219 886.128906 314.320312 885.960938 313.203125 885.738281 C 312.082031 885.515625 310.976562 885.238281 309.886719 884.910156 C 308.792969 884.578125 307.722656 884.191406 306.667969 883.757812 C 305.613281 883.320312 304.582031 882.832031 303.578125 882.296875 C 302.570312 881.757812 301.59375 881.171875 300.644531 880.539062 C 299.695312 879.902344 298.78125 879.226562 297.898438 878.5 C 297.015625 877.777344 296.171875 877.011719 295.363281 876.207031 C 294.558594 875.398438 293.792969 874.554688 293.070312 873.671875 C 292.34375 872.789062 291.667969 871.875 291.03125 870.925781 C 290.398438 869.976562 289.8125 869 289.273438 867.992188 C 288.738281 866.988281 288.25 865.957031 287.8125 864.902344 C 287.375 863.847656 286.992188 862.777344 286.660156 861.683594 C 286.332031 860.59375 286.054688 859.488281 285.832031 858.367188 C 285.609375 857.25 285.441406 856.121094 285.328125 854.988281 C 285.21875 853.851562 285.160156 852.714844 285.160156 851.570312 L 285.160156 461.40625 C 285.160156 460.265625 285.21875 459.125 285.328125 457.988281 C 285.441406 456.855469 285.609375 455.726562 285.832031 454.609375 C 286.054688 453.488281 286.332031 452.382812 286.660156 451.292969 C 286.992188 450.199219 287.375 449.128906 287.8125 448.074219 C 288.25 447.019531 288.738281 445.988281 289.273438 444.984375 C 289.8125 443.976562 290.398438 443 291.03125 442.050781 C 291.667969 441.101562 292.34375 440.1875 293.070312 439.304688 C 293.792969 438.421875 294.558594 437.578125 295.363281 436.773438 C 296.171875 435.964844 297.015625 435.199219 297.898438 434.476562 C 298.78125 433.75 299.695312 433.074219 300.644531 432.4375 C 301.59375 431.804688 302.570312 431.21875 303.578125 430.683594 C 304.582031 430.144531 305.613281 429.65625 306.667969 429.21875 C 307.722656 428.785156 308.792969 428.398438 309.886719 428.066406 C 310.976562 427.738281 312.082031 427.460938 313.203125 427.238281 C 314.320312 427.015625 315.449219 426.847656 316.582031 426.734375 C 317.71875 426.625 318.855469 426.566406 319.996094 426.566406 Z M 319.996094 426.566406 " fill-opacity="1" fill-rule="nonzero"/></g><g clip-path="url(#de78721a86)"><path fill="#8b8b8b" d="M 55.242188 538.042969 L 194.585938 538.042969 C 195.726562 538.042969 196.867188 538.101562 198 538.210938 C 199.136719 538.324219 200.265625 538.492188 201.382812 538.714844 C 202.503906 538.9375 203.609375 539.214844 204.699219 539.542969 C 205.792969 539.875 206.863281 540.261719 207.917969 540.695312 C 208.972656 541.132812 210.003906 541.621094 211.007812 542.15625 C 212.015625 542.695312 212.992188 543.28125 213.941406 543.914062 C 214.890625 544.550781 215.804688 545.226562 216.6875 545.953125 C 217.570312 546.675781 218.414062 547.441406 219.21875 548.246094 C 220.027344 549.054688 220.792969 549.898438 221.515625 550.78125 C 222.238281 551.664062 222.917969 552.578125 223.550781 553.527344 C 224.1875 554.476562 224.773438 555.453125 225.308594 556.460938 C 225.847656 557.464844 226.335938 558.496094 226.773438 559.550781 C 227.207031 560.605469 227.59375 561.675781 227.921875 562.769531 C 228.253906 563.859375 228.53125 564.964844 228.753906 566.085938 C 228.976562 567.203125 229.144531 568.332031 229.253906 569.464844 C 229.367188 570.601562 229.421875 571.738281 229.421875 572.882812 L 229.421875 851.570312 C 229.421875 852.714844 229.367188 853.851562 229.253906 854.988281 C 229.144531 856.121094 228.976562 857.25 228.753906 858.367188 C 228.53125 859.488281 228.253906 860.59375 227.921875 861.683594 C 227.59375 862.777344 227.207031 863.847656 226.773438 864.902344 C 226.335938 865.957031 225.847656 866.988281 225.308594 867.992188 C 224.773438 869 224.1875 869.976562 223.550781 870.925781 C 222.917969 871.875 222.238281 872.789062 221.515625 873.671875 C 220.792969 874.554688 220.027344 875.398438 219.21875 876.207031 C 218.414062 877.011719 217.570312 877.777344 216.6875 878.5 C 215.804688 879.226562 214.890625 879.902344 213.941406 880.539062 C 212.992188 881.171875 212.015625 881.757812 211.007812 882.296875 C 210.003906 882.832031 208.972656 883.320312 207.917969 883.757812 C 206.863281 884.191406 205.792969 884.578125 204.699219 884.910156 C 203.609375 885.238281 202.503906 885.515625 201.382812 885.738281 C 200.265625 885.960938 199.136719 886.128906 198 886.242188 C 196.867188 886.351562 195.726562 886.410156 194.585938 886.410156 L 55.242188 886.410156 C 54.101562 886.410156 52.960938 886.351562 51.828125 886.242188 C 50.691406 886.128906 49.5625 885.960938 48.445312 885.738281 C 47.328125 885.515625 46.222656 885.238281 45.128906 884.910156 C 44.039062 884.578125 42.964844 884.191406 41.910156 883.757812 C 40.855469 883.320312 39.824219 882.832031 38.820312 882.296875 C 37.8125 881.757812 36.835938 881.171875 35.886719 880.539062 C 34.9375 879.902344 34.023438 879.226562 33.140625 878.5 C 32.257812 877.777344 31.414062 877.011719 30.609375 876.207031 C 29.800781 875.398438 29.035156 874.554688 28.3125 873.671875 C 27.589844 872.789062 26.910156 871.875 26.277344 870.925781 C 25.640625 869.976562 25.054688 869 24.519531 867.992188 C 23.980469 866.988281 23.492188 865.957031 23.058594 864.902344 C 22.621094 863.847656 22.238281 862.777344 21.90625 861.683594 C 21.574219 860.59375 21.296875 859.488281 21.074219 858.367188 C 20.851562 857.25 20.683594 856.121094 20.574219 854.988281 C 20.460938 853.851562 20.40625 852.714844 20.40625 851.570312 L 20.40625 572.882812 C 20.40625 571.738281 20.460938 570.601562 20.574219 569.464844 C 20.683594 568.332031 20.851562 567.203125 21.074219 566.085938 C 21.296875 564.964844 21.574219 563.859375 21.90625 562.769531 C 22.238281 561.675781 22.621094 560.605469 23.058594 559.550781 C 23.492188 558.496094 23.980469 557.464844 24.519531 556.460938 C 25.054688 555.453125 25.640625 554.476562 26.277344 553.527344 C 26.910156 552.578125 27.589844 551.664062 28.3125 550.78125 C 29.035156 549.898438 29.800781 549.054688 30.609375 548.246094 C 31.414062 547.441406 32.257812 546.675781 33.140625 545.953125 C 34.023438 545.226562 34.9375 544.550781 35.886719 543.914062 C 36.835938 543.28125 37.8125 542.695312 38.820312 542.15625 C 39.824219 541.621094 40.855469 541.132812 41.910156 540.695312 C 42.964844 540.261719 44.039062 539.875 45.128906 539.542969 C 46.222656 539.214844 47.328125 538.9375 48.445312 538.714844 C 49.5625 538.492188 50.691406 538.324219 51.828125 538.210938 C 52.960938 538.101562 54.101562 538.042969 55.242188 538.042969 Z M 55.242188 538.042969 " fill-opacity="1" fill-rule="nonzero"/></g><g clip-path="url(#8d4b22057b)"><path fill="#8b8b8b" d="M 612.625 593.78125 L 751.96875 593.78125 C 753.109375 593.78125 754.25 593.839844 755.382812 593.949219 C 756.519531 594.0625 757.644531 594.230469 758.765625 594.453125 C 759.882812 594.675781 760.988281 594.953125 762.082031 595.28125 C 763.171875 595.613281 764.246094 595.996094 765.300781 596.433594 C 766.355469 596.871094 767.382812 597.359375 768.390625 597.894531 C 769.398438 598.433594 770.375 599.019531 771.324219 599.652344 C 772.273438 600.289062 773.1875 600.964844 774.070312 601.691406 C 774.949219 602.414062 775.796875 603.179688 776.601562 603.984375 C 777.410156 604.792969 778.175781 605.636719 778.898438 606.519531 C 779.621094 607.402344 780.300781 608.316406 780.933594 609.265625 C 781.566406 610.214844 782.152344 611.191406 782.691406 612.199219 C 783.230469 613.203125 783.71875 614.234375 784.152344 615.289062 C 784.589844 616.34375 784.972656 617.414062 785.304688 618.507812 C 785.636719 619.597656 785.914062 620.703125 786.136719 621.824219 C 786.359375 622.941406 786.527344 624.070312 786.636719 625.203125 C 786.75 626.339844 786.804688 627.476562 786.804688 628.621094 L 786.804688 851.570312 C 786.804688 852.714844 786.75 853.851562 786.636719 854.988281 C 786.527344 856.121094 786.359375 857.25 786.136719 858.367188 C 785.914062 859.488281 785.636719 860.59375 785.304688 861.683594 C 784.972656 862.777344 784.589844 863.847656 784.152344 864.902344 C 783.71875 865.957031 783.230469 866.988281 782.691406 867.992188 C 782.152344 869 781.566406 869.976562 780.933594 870.925781 C 780.300781 871.875 779.621094 872.789062 778.898438 873.671875 C 778.175781 874.554688 777.410156 875.398438 776.601562 876.207031 C 775.796875 877.011719 774.949219 877.777344 774.070312 878.5 C 773.1875 879.226562 772.273438 879.902344 771.324219 880.539062 C 770.375 881.171875 769.398438 881.757812 768.390625 882.296875 C 767.382812 882.832031 766.355469 883.320312 765.300781 883.757812 C 764.246094 884.191406 763.171875 884.578125 762.082031 884.910156 C 760.988281 885.238281 759.882812 885.515625 758.765625 885.738281 C 757.644531 885.960938 756.519531 886.128906 755.382812 886.242188 C 754.25 886.351562 753.109375 886.410156 751.96875 886.410156 L 612.625 886.410156 C 611.484375 886.410156 610.34375 886.351562 609.210938 886.242188 C 608.074219 886.128906 606.945312 885.960938 605.828125 885.738281 C 604.707031 885.515625 603.601562 885.238281 602.511719 884.910156 C 601.417969 884.578125 600.347656 884.191406 599.292969 883.757812 C 598.238281 883.320312 597.207031 882.832031 596.203125 882.296875 C 595.195312 881.757812 594.21875 881.171875 593.269531 880.539062 C 592.320312 879.902344 591.40625 879.226562 590.523438 878.5 C 589.640625 877.777344 588.796875 877.011719 587.992188 876.207031 C 587.183594 875.398438 586.417969 874.554688 585.695312 873.671875 C 584.972656 872.789062 584.292969 871.875 583.65625 870.925781 C 583.023438 869.976562 582.4375 869 581.902344 867.992188 C 581.363281 866.988281 580.875 865.957031 580.4375 864.902344 C 580.003906 863.847656 579.617188 862.777344 579.289062 861.683594 C 578.957031 860.59375 578.679688 859.488281 578.457031 858.367188 C 578.234375 857.25 578.066406 856.121094 577.953125 854.988281 C 577.84375 853.851562 577.789062 852.714844 577.789062 851.570312 L 577.789062 628.621094 C 577.789062 627.476562 577.84375 626.339844 577.953125 625.203125 C 578.066406 624.070312 578.234375 622.941406 578.457031 621.824219 C 578.679688 620.703125 578.957031 619.597656 579.289062 618.507812 C 579.617188 617.414062 580.003906 616.34375 580.4375 615.289062 C 580.875 614.234375 581.363281 613.203125 581.902344 612.199219 C 582.4375 611.191406 583.023438 610.214844 583.65625 609.265625 C 584.292969 608.316406 584.972656 607.402344 585.695312 606.519531 C 586.417969 605.636719 587.183594 604.792969 587.992188 603.984375 C 588.796875 603.179688 589.640625 602.414062 590.523438 601.691406 C 591.40625 600.964844 592.320312 600.289062 593.269531 599.652344 C 594.21875 599.019531 595.195312 598.433594 596.203125 597.894531 C 597.207031 597.359375 598.238281 596.871094 599.292969 596.433594 C 600.347656 595.996094 601.417969 595.613281 602.511719 595.28125 C 603.601562 594.953125 604.707031 594.675781 605.828125 594.453125 C 606.945312 594.230469 608.074219 594.0625 609.210938 593.949219 C 610.34375 593.839844 611.484375 593.78125 612.625 593.78125 Z M 612.625 593.78125 " fill-opacity="1" fill-rule="nonzero"/></g><path fill="#8b8b8b" d="M 668.15625 353.417969 L 649.367188 397.273438 C 649.074219 397.960938 648.730469 398.625 648.339844 399.261719 C 647.945312 399.902344 647.511719 400.507812 647.03125 401.082031 C 646.550781 401.65625 646.03125 402.191406 645.472656 402.691406 C 644.914062 403.191406 644.324219 403.644531 643.699219 404.058594 C 643.070312 404.46875 642.421875 404.835938 641.742188 405.152344 C 641.0625 405.46875 640.367188 405.734375 639.648438 405.949219 C 638.929688 406.167969 638.203125 406.328125 637.460938 406.4375 C 636.722656 406.546875 635.976562 406.601562 635.226562 406.601562 L 596.359375 406.601562 C 595.601562 406.601562 594.847656 406.65625 594.101562 406.769531 C 593.351562 406.878906 592.617188 407.046875 591.890625 407.265625 C 591.167969 407.484375 590.464844 407.757812 589.78125 408.082031 C 589.09375 408.402344 588.4375 408.777344 587.808594 409.195312 C 587.179688 409.617188 586.585938 410.082031 586.023438 410.589844 C 585.464844 411.097656 584.945312 411.644531 584.464844 412.230469 C 583.984375 412.816406 583.550781 413.433594 583.160156 414.082031 C 582.773438 414.730469 582.433594 415.40625 582.144531 416.105469 C 581.855469 416.804688 581.617188 417.519531 581.433594 418.253906 C 581.25 418.988281 581.121094 419.730469 581.046875 420.484375 C 580.972656 421.238281 580.953125 421.992188 580.992188 422.75 C 581.027344 423.503906 581.121094 424.253906 581.269531 424.996094 C 581.414062 425.738281 581.617188 426.464844 581.871094 427.179688 C 582.128906 427.890625 582.433594 428.582031 582.789062 429.246094 C 583.144531 429.914062 583.550781 430.554688 584 431.160156 C 584.453125 431.769531 584.945312 432.339844 585.480469 432.875 L 614.597656 462.003906 C 615.535156 462.945312 616.339844 463.988281 617.007812 465.136719 C 617.679688 466.285156 618.191406 467.5 618.542969 468.78125 C 618.898438 470.058594 619.085938 471.363281 619.101562 472.695312 C 619.117188 474.023438 618.964844 475.332031 618.644531 476.621094 L 604.882812 531.679688 C 604.703125 532.40625 604.574219 533.144531 604.5 533.890625 C 604.425781 534.636719 604.40625 535.382812 604.441406 536.132812 C 604.476562 536.882812 604.5625 537.625 604.707031 538.359375 C 604.851562 539.097656 605.046875 539.820312 605.296875 540.527344 C 605.546875 541.234375 605.84375 541.917969 606.195312 542.582031 C 606.542969 543.246094 606.9375 543.878906 607.378906 544.488281 C 607.824219 545.09375 608.304688 545.664062 608.832031 546.199219 C 609.355469 546.734375 609.917969 547.226562 610.515625 547.679688 C 611.113281 548.132812 611.742188 548.539062 612.398438 548.902344 C 613.054688 549.261719 613.734375 549.574219 614.4375 549.835938 C 615.140625 550.097656 615.859375 550.304688 616.59375 550.464844 C 617.324219 550.621094 618.066406 550.722656 618.816406 550.769531 C 619.5625 550.820312 620.3125 550.8125 621.058594 550.753906 C 621.804688 550.691406 622.542969 550.578125 623.273438 550.40625 C 624.003906 550.238281 624.71875 550.019531 625.417969 549.746094 C 626.117188 549.472656 626.792969 549.148438 627.441406 548.777344 L 674.664062 521.78125 C 675.824219 521.117188 677.054688 520.613281 678.347656 520.269531 C 679.640625 519.925781 680.957031 519.753906 682.296875 519.753906 C 683.636719 519.753906 684.953125 519.925781 686.246094 520.269531 C 687.539062 520.613281 688.765625 521.117188 689.929688 521.78125 L 737.148438 548.777344 C 737.800781 549.148438 738.476562 549.472656 739.175781 549.746094 C 739.871094 550.019531 740.585938 550.238281 741.316406 550.40625 C 742.046875 550.578125 742.785156 550.691406 743.535156 550.753906 C 744.28125 550.8125 745.03125 550.820312 745.777344 550.769531 C 746.527344 550.722656 747.265625 550.621094 748 550.464844 C 748.734375 550.304688 749.453125 550.097656 750.15625 549.835938 C 750.855469 549.574219 751.535156 549.261719 752.195312 548.902344 C 752.851562 548.539062 753.480469 548.132812 754.078125 547.679688 C 754.675781 547.226562 755.234375 546.734375 755.761719 546.199219 C 756.285156 545.664062 756.769531 545.09375 757.210938 544.488281 C 757.652344 543.878906 758.050781 543.246094 758.398438 542.582031 C 758.75 541.917969 759.046875 541.234375 759.296875 540.527344 C 759.546875 539.820312 759.742188 539.097656 759.886719 538.359375 C 760.027344 537.625 760.117188 536.882812 760.152344 536.132812 C 760.1875 535.382812 760.167969 534.636719 760.09375 533.890625 C 760.019531 533.144531 759.890625 532.40625 759.710938 531.679688 L 745.949219 476.621094 C 745.628906 475.332031 745.472656 474.023438 745.492188 472.695312 C 745.507812 471.367188 745.695312 470.0625 746.046875 468.78125 C 746.402344 467.5 746.914062 466.285156 747.582031 465.136719 C 748.253906 463.988281 749.058594 462.945312 749.996094 462.003906 L 779.113281 432.875 C 779.648438 432.339844 780.140625 431.769531 780.59375 431.160156 C 781.042969 430.554688 781.445312 429.914062 781.804688 429.246094 C 782.160156 428.582031 782.464844 427.890625 782.722656 427.179688 C 782.976562 426.464844 783.175781 425.738281 783.324219 424.996094 C 783.472656 424.253906 783.566406 423.503906 783.601562 422.75 C 783.640625 421.992188 783.621094 421.238281 783.546875 420.484375 C 783.472656 419.730469 783.34375 418.988281 783.160156 418.253906 C 782.976562 417.519531 782.738281 416.804688 782.449219 416.105469 C 782.160156 415.40625 781.820312 414.730469 781.433594 414.082031 C 781.042969 413.433594 780.609375 412.816406 780.128906 412.230469 C 779.648438 411.644531 779.128906 411.097656 778.566406 410.589844 C 778.007812 410.082031 777.414062 409.617188 776.785156 409.195312 C 776.152344 408.777344 775.496094 408.402344 774.8125 408.082031 C 774.128906 407.757812 773.425781 407.484375 772.703125 407.265625 C 771.976562 407.042969 771.242188 406.878906 770.492188 406.769531 C 769.742188 406.65625 768.992188 406.601562 768.234375 406.601562 L 729.367188 406.601562 C 728.617188 406.601562 727.871094 406.546875 727.132812 406.4375 C 726.390625 406.328125 725.660156 406.167969 724.945312 405.949219 C 724.226562 405.734375 723.527344 405.46875 722.851562 405.152344 C 722.171875 404.835938 721.519531 404.46875 720.894531 404.058594 C 720.269531 403.644531 719.679688 403.191406 719.121094 402.691406 C 718.5625 402.191406 718.042969 401.65625 717.5625 401.082031 C 717.082031 400.507812 716.644531 399.902344 716.253906 399.261719 C 715.863281 398.625 715.519531 397.960938 715.222656 397.273438 L 696.4375 353.417969 C 696.144531 352.730469 695.800781 352.066406 695.40625 351.429688 C 695.015625 350.789062 694.578125 350.183594 694.101562 349.609375 C 693.621094 349.035156 693.101562 348.5 692.542969 348 C 691.984375 347.5 691.390625 347.046875 690.765625 346.632812 C 690.140625 346.222656 689.488281 345.855469 688.8125 345.539062 C 688.132812 345.222656 687.433594 344.957031 686.71875 344.742188 C 686 344.523438 685.273438 344.363281 684.53125 344.253906 C 683.789062 344.144531 683.046875 344.089844 682.296875 344.089844 C 681.546875 344.089844 680.804688 344.144531 680.0625 344.253906 C 679.320312 344.363281 678.59375 344.523438 677.875 344.742188 C 677.15625 344.957031 676.460938 345.222656 675.78125 345.539062 C 675.101562 345.855469 674.453125 346.222656 673.828125 346.632812 C 673.203125 347.046875 672.609375 347.5 672.050781 348 C 671.492188 348.5 670.972656 349.035156 670.492188 349.609375 C 670.011719 350.183594 669.578125 350.789062 669.183594 351.429688 C 668.792969 352.066406 668.449219 352.730469 668.15625 353.417969 Z M 668.15625 353.417969 " fill-opacity="1" fill-rule="nonzero"/></svg>